<svg xmlns="http://www.w3.org/2000/svg" viewBox="0 0 100 100" role="img" aria-label="CrewView">
  <defs>
    <linearGradient id="cvMarkGradient" x1="16" y1="86" x2="84" y2="14" gradientUnits="userSpaceOnUse">
      <stop offset="0" stop-color="#0D6EFD"/>
      <stop offset="0.52" stop-color="#159CFF"/>
      <stop offset="1" stop-color="#22C6FF"/>
    </linearGradient>
  </defs>

  <!-- CrewView C -->
  <path d="M79 20
           C65 9 45 8 30 16
           C12 25 6 47 14 65
           C22 84 43 94 62 88
           C69 86 75 82 80 77"
        fill="none"
        stroke="url(#cvMarkGradient)"
        stroke-width="14"
        stroke-linecap="round"/>

  <!-- Flight-path streaks -->
  <path d="M20 78 L48 60"
        fill="none" stroke="#0D6EFD" stroke-width="4.1" stroke-linecap="round"/>
  <path d="M24 84 L51 63"
        fill="none" stroke="#159CFF" stroke-width="3.4" stroke-linecap="round"/>
  <path d="M30 89 L54 66"
        fill="none" stroke="#22C6FF" stroke-width="2.7" stroke-linecap="round"/>

  <!-- Aircraft -->
  <path d="M54 44
           L77 32
           C79 31 81 31.5 82 33
           L83 35
           L72 46
           L84 50
           L81 54
           L67 52
           L61 67
           L57 65
           L59 51
           L47 47
           L50 43
           Z"
        fill="#FFFFFF"/>
</svg>